solid CATIA STL
  facet normal -1.000000e+000 -3.200833e-016  1.570276e-015
    outer loop
      vertex  0.000000e+000  6.750000e+003 -2.000000e+002
      vertex  4.547474e-013  4.250000e+003 -4.200000e+002
      vertex  1.364242e-012  1.899152e+003 -3.200000e+002
    endloop
  endfacet
  facet normal -9.999999e-001  4.788952e-016 -3.072742e-014
    outer loop
      vertex  0.000000e+000  6.750000e+003 -2.000000e+002
      vertex  1.364242e-012  1.899152e+003 -3.200000e+002
      vertex  4.547474e-013  0.000000e+000 -3.200000e+002
    endloop
  endfacet
  facet normal -1.000000e+000 -1.684249e-017 -2.842171e-015
    outer loop
      vertex  0.000000e+000  6.750000e+003 -2.000000e+002
      vertex  4.547474e-013  0.000000e+000 -3.200000e+002
      vertex -4.547474e-013 -4.547474e-013  0.000000e+000
    endloop
  endfacet
  facet normal -1.000000e+000  2.021099e-016  4.547473e-015
    outer loop
      vertex  0.000000e+000  6.750000e+003 -2.000000e+002
      vertex -4.547474e-013 -4.547474e-013  0.000000e+000
      vertex  9.094947e-013  6.750000e+003 -5.115908e-013
    endloop
  endfacet
  facet normal -1.000000e+000  0.000000e+000  0.000000e+000
    outer loop
      vertex -4.547474e-013 -6.750000e+003 -2.000000e+002
      vertex -4.547474e-013 -6.750000e+003  0.000000e+000
      vertex -4.547474e-013 -4.547474e-013  0.000000e+000
    endloop
  endfacet
  facet normal -1.000000e+000  8.421247e-017 -2.842171e-015
    outer loop
      vertex -4.547474e-013 -6.750000e+003 -2.000000e+002
      vertex -4.547474e-013 -4.547474e-013  0.000000e+000
      vertex  4.547474e-013  0.000000e+000 -3.200000e+002
    endloop
  endfacet
  facet normal -9.999999e-001  -0.000000e+000 -7.579122e-015
    outer loop
      vertex -4.547474e-013 -6.750000e+003 -2.000000e+002
      vertex  4.547474e-013  0.000000e+000 -3.200000e+002
      vertex  4.547474e-013 -1.899152e+003 -3.200000e+002
    endloop
  endfacet
  facet normal -1.000000e+000  1.896790e-016  8.840928e-017
    outer loop
      vertex -4.547474e-013 -6.750000e+003 -2.000000e+002
      vertex  4.547474e-013 -1.899152e+003 -3.200000e+002
      vertex  0.000000e+000 -4.250000e+003 -4.200000e+002
    endloop
  endfacet
  facet normal -9.999999e-001  0.000000e+000  2.197909e-016
    outer loop
      vertex -9.094947e-013 -3.205148e+003 -6.807000e+003
      vertex  4.547474e-013 -3.550000e+003 -6.000000e+002
      vertex  4.547474e-013 -2.999152e+003 -6.000000e+002
    endloop
  endfacet
  facet normal -1.000000e+000  4.390395e-015  7.408357e-017
    outer loop
      vertex -9.094947e-013 -3.205148e+003 -6.807000e+003
      vertex  4.547474e-013 -2.999152e+003 -6.000000e+002
      vertex  1.364242e-012 -2.701636e+003 -5.955000e+003
    endloop
  endfacet
  facet normal -1.000000e+000 -2.652199e-016  2.825444e-015
    outer loop
      vertex -9.094947e-013 -3.205148e+003 -6.807000e+003
      vertex  1.364242e-012 -2.701636e+003 -5.955000e+003
      vertex  2.202682e-013 -1.051636e+003 -6.205000e+003
    endloop
  endfacet
  facet normal -1.000000e+000 -9.091778e-016  5.129051e-015
    outer loop
      vertex -9.094947e-013 -3.205148e+003 -6.807000e+003
      vertex  2.202682e-013 -1.051636e+003 -6.205000e+003
      vertex -7.358558e-013 -3.842615e-011 -6.205000e+003
    endloop
  endfacet
  facet normal -1.000000e+000 -1.767961e-016  1.229729e-015
    outer loop
      vertex -9.094947e-013 -3.205148e+003 -6.807000e+003
      vertex -7.358558e-013 -3.842615e-011 -6.205000e+003
      vertex -1.476153e-012 -3.728928e-011 -6.807000e+003
    endloop
  endfacet
  facet normal -1.000000e+000  2.932948e-016  1.229729e-015
    outer loop
      vertex -5.360993e-013  3.205148e+003 -6.807000e+003
      vertex -1.476153e-012 -3.728928e-011 -6.807000e+003
      vertex -7.358558e-013 -3.842615e-011 -6.205000e+003
    endloop
  endfacet
  facet normal -1.000000e+000  2.072298e-015  1.070144e-014
    outer loop
      vertex -5.360993e-013  3.205148e+003 -6.807000e+003
      vertex -7.358558e-013 -3.842615e-011 -6.205000e+003
      vertex  1.443447e-012  1.051636e+003 -6.205000e+003
    endloop
  endfacet
  facet normal -1.000000e+000 -3.863468e-016  1.906219e-015
    outer loop
      vertex -5.360993e-013  3.205148e+003 -6.807000e+003
      vertex  1.443447e-012  1.051636e+003 -6.205000e+003
      vertex  1.282530e-012  2.701636e+003 -5.955000e+003
    endloop
  endfacet
  facet normal -1.000000e+000 -3.704782e-015 -5.489916e-017
    outer loop
      vertex -5.360993e-013  3.205148e+003 -6.807000e+003
      vertex  1.282530e-012  2.701636e+003 -5.955000e+003
      vertex -1.136868e-013  2.999152e+003 -6.000000e+002
    endloop
  endfacet
  facet normal -9.999999e-001  0.000000e+000  6.805420e-017
    outer loop
      vertex -5.360993e-013  3.205148e+003 -6.807000e+003
      vertex -1.136868e-013  2.999152e+003 -6.000000e+002
      vertex -1.136868e-013  3.550000e+003 -6.000000e+002
    endloop
  endfacet
  facet normal -9.999999e-001  2.581944e-016 -1.522285e-015
    outer loop
      vertex  0.000000e+000 -4.250000e+003 -4.200000e+002
      vertex  4.547474e-013 -1.899152e+003 -3.200000e+002
      vertex  4.547474e-013 -3.550000e+003 -6.000000e+002
    endloop
  endfacet
  facet normal -1.000000e+000  0.000000e+000  0.000000e+000
    outer loop
      vertex  4.547474e-013 -3.550000e+003 -6.000000e+002
      vertex  4.547474e-013 -1.899152e+003 -3.200000e+002
      vertex  4.547474e-013 -2.999152e+003 -6.000000e+002
    endloop
  endfacet
  facet normal -1.000000e+000  0.000000e+000  5.278317e-015
    outer loop
      vertex -1.136868e-013  2.999152e+003 -6.000000e+002
      vertex  1.364242e-012  1.899152e+003 -3.200000e+002
      vertex -1.136868e-013  3.550000e+003 -6.000000e+002
    endloop
  endfacet
  facet normal -9.999999e-001 -2.166989e-016  4.000685e-015
    outer loop
      vertex -1.136868e-013  3.550000e+003 -6.000000e+002
      vertex  1.364242e-012  1.899152e+003 -3.200000e+002
      vertex  4.547474e-013  4.250000e+003 -4.200000e+002
    endloop
  endfacet
  facet normal  1.000000e+000  0.000000e+000  0.000000e+000
    outer loop
      vertex  4.500000e+003  6.750000e+003 -2.000000e+002
      vertex  4.500000e+003  6.750000e+003 -5.115908e-013
      vertex  4.500000e+003 -4.547474e-013  0.000000e+000
    endloop
  endfacet
  facet normal  1.000000e+000  0.000000e+000  0.000000e+000
    outer loop
      vertex  4.500000e+003  6.750000e+003 -2.000000e+002
      vertex  4.500000e+003 -4.547474e-013  0.000000e+000
      vertex  4.500000e+003  0.000000e+000 -3.200000e+002
    endloop
  endfacet
  facet normal  9.999999e-001  0.000000e+000  0.000000e+000
    outer loop
      vertex  4.500000e+003  6.750000e+003 -2.000000e+002
      vertex  4.500000e+003  0.000000e+000 -3.200000e+002
      vertex  4.500000e+003  1.899152e+003 -3.200000e+002
    endloop
  endfacet
  facet normal  1.000000e+000  -0.000000e+000  0.000000e+000
    outer loop
      vertex  4.500000e+003  6.750000e+003 -2.000000e+002
      vertex  4.500000e+003  1.899152e+003 -3.200000e+002
      vertex  4.500000e+003  4.250000e+003 -4.200000e+002
    endloop
  endfacet
  facet normal  1.000000e+000  0.000000e+000  -0.000000e+000
    outer loop
      vertex  4.500000e+003 -6.750000e+003 -2.000000e+002
      vertex  4.500000e+003 -4.250000e+003 -4.200000e+002
      vertex  4.500000e+003 -1.899152e+003 -3.200000e+002
    endloop
  endfacet
  facet normal  9.999999e-001  0.000000e+000  -0.000000e+000
    outer loop
      vertex  4.500000e+003 -6.750000e+003 -2.000000e+002
      vertex  4.500000e+003 -1.899152e+003 -3.200000e+002
      vertex  4.500000e+003  0.000000e+000 -3.200000e+002
    endloop
  endfacet
  facet normal  1.000000e+000  0.000000e+000  0.000000e+000
    outer loop
      vertex  4.500000e+003 -6.750000e+003 -2.000000e+002
      vertex  4.500000e+003  0.000000e+000 -3.200000e+002
      vertex  4.500000e+003 -4.547474e-013  0.000000e+000
    endloop
  endfacet
  facet normal  1.000000e+000  0.000000e+000  0.000000e+000
    outer loop
      vertex  4.500000e+003 -6.750000e+003 -2.000000e+002
      vertex  4.500000e+003 -4.547474e-013  0.000000e+000
      vertex  4.500000e+003 -6.750000e+003  0.000000e+000
    endloop
  endfacet
  facet normal  9.999999e-001  0.000000e+000  0.000000e+000
    outer loop
      vertex  4.500000e+003 -3.180480e+003 -7.251000e+003
      vertex  4.500000e+003 -1.796252e-011 -7.251000e+003
      vertex  4.500000e+003 -2.000888e-011 -6.601000e+003
    endloop
  endfacet
  facet normal  1.000000e+000  0.000000e+000  0.000000e+000
    outer loop
      vertex  4.500000e+003 -3.180480e+003 -7.251000e+003
      vertex  4.500000e+003 -2.000888e-011 -6.601000e+003
      vertex  4.500000e+003 -1.029635e+003 -6.601000e+003
    endloop
  endfacet
  facet normal  9.999999e-001  0.000000e+000  0.000000e+000
    outer loop
      vertex  4.500000e+003 -3.180480e+003 -7.251000e+003
      vertex  4.500000e+003 -1.029635e+003 -6.601000e+003
      vertex  4.500000e+003 -2.679635e+003 -6.351000e+003
    endloop
  endfacet
  facet normal  1.000000e+000  0.000000e+000  0.000000e+000
    outer loop
      vertex  4.500000e+003 -3.180480e+003 -7.251000e+003
      vertex  4.500000e+003 -2.679635e+003 -6.351000e+003
      vertex  4.500000e+003 -2.999152e+003 -6.000000e+002
    endloop
  endfacet
  facet normal  1.000000e+000  0.000000e+000  0.000000e+000
    outer loop
      vertex  4.500000e+003 -3.180480e+003 -7.251000e+003
      vertex  4.500000e+003 -2.999152e+003 -6.000000e+002
      vertex  4.500000e+003 -3.550000e+003 -6.000000e+002
    endloop
  endfacet
  facet normal  1.000000e+000  0.000000e+000  0.000000e+000
    outer loop
      vertex  4.500000e+003  3.180480e+003 -7.251000e+003
      vertex  4.500000e+003  3.550000e+003 -6.000000e+002
      vertex  4.500000e+003  2.999152e+003 -6.000000e+002
    endloop
  endfacet
  facet normal  1.000000e+000  0.000000e+000  0.000000e+000
    outer loop
      vertex  4.500000e+003  3.180480e+003 -7.251000e+003
      vertex  4.500000e+003  2.999152e+003 -6.000000e+002
      vertex  4.500000e+003  2.679635e+003 -6.351000e+003
    endloop
  endfacet
  facet normal  9.999999e-001  0.000000e+000  0.000000e+000
    outer loop
      vertex  4.500000e+003  3.180480e+003 -7.251000e+003
      vertex  4.500000e+003  2.679635e+003 -6.351000e+003
      vertex  4.500000e+003  1.029635e+003 -6.601000e+003
    endloop
  endfacet
  facet normal  1.000000e+000  0.000000e+000  0.000000e+000
    outer loop
      vertex  4.500000e+003  3.180480e+003 -7.251000e+003
      vertex  4.500000e+003  1.029635e+003 -6.601000e+003
      vertex  4.500000e+003 -2.000888e-011 -6.601000e+003
    endloop
  endfacet
  facet normal  9.999999e-001  0.000000e+000  0.000000e+000
    outer loop
      vertex  4.500000e+003  3.180480e+003 -7.251000e+003
      vertex  4.500000e+003 -2.000888e-011 -6.601000e+003
      vertex  4.500000e+003 -1.796252e-011 -7.251000e+003
    endloop
  endfacet
  facet normal  9.999999e-001  0.000000e+000  -0.000000e+000
    outer loop
      vertex  4.500000e+003 -4.250000e+003 -4.200000e+002
      vertex  4.500000e+003 -3.550000e+003 -6.000000e+002
      vertex  4.500000e+003 -1.899152e+003 -3.200000e+002
    endloop
  endfacet
  facet normal  1.000000e+000  0.000000e+000  0.000000e+000
    outer loop
      vertex  4.500000e+003 -1.899152e+003 -3.200000e+002
      vertex  4.500000e+003 -3.550000e+003 -6.000000e+002
      vertex  4.500000e+003 -2.999152e+003 -6.000000e+002
    endloop
  endfacet
  facet normal  1.000000e+000  0.000000e+000  0.000000e+000
    outer loop
      vertex  4.500000e+003  2.999152e+003 -6.000000e+002
      vertex  4.500000e+003  3.550000e+003 -6.000000e+002
      vertex  4.500000e+003  1.899152e+003 -3.200000e+002
    endloop
  endfacet
  facet normal  9.999999e-001  0.000000e+000  0.000000e+000
    outer loop
      vertex  4.500000e+003  1.899152e+003 -3.200000e+002
      vertex  4.500000e+003  3.550000e+003 -6.000000e+002
      vertex  4.500000e+003  4.250000e+003 -4.200000e+002
    endloop
  endfacet
  facet normal  0.000000e+000 -9.984602e-001  5.547297e-002
    outer loop
      vertex -1.136868e-013  2.999152e+003 -6.000000e+002
      vertex  1.282530e-012  2.701636e+003 -5.955000e+003
      vertex  4.500000e+003  2.999152e+003 -6.000000e+002
    endloop
  endfacet
  facet normal -9.748891e-009 -9.984601e-001  5.547297e-002
    outer loop
      vertex  4.500000e+003  2.999152e+003 -6.000000e+002
      vertex  1.282530e-012  2.701636e+003 -5.955000e+003
      vertex  4.500000e+003  2.679635e+003 -6.351000e+003
    endloop
  endfacet
  facet normal  8.595524e-002 -1.492509e-001  9.850562e-001
    outer loop
      vertex  1.443447e-012  1.051636e+003 -6.205000e+003
      vertex  4.500000e+003  1.029635e+003 -6.601000e+003
      vertex  1.282530e-012  2.701636e+003 -5.955000e+003
    endloop
  endfacet
  facet normal  8.595524e-002 -1.492509e-001  9.850562e-001
    outer loop
      vertex  1.282530e-012  2.701636e+003 -5.955000e+003
      vertex  4.500000e+003  1.029635e+003 -6.601000e+003
      vertex  4.500000e+003  2.679635e+003 -6.351000e+003
    endloop
  endfacet
  facet normal  8.766122e-002  0.000000e+000  9.961503e-001
    outer loop
      vertex -7.358558e-013 -3.842615e-011 -6.205000e+003
      vertex  4.500000e+003 -2.000888e-011 -6.601000e+003
      vertex  1.443447e-012  1.051636e+003 -6.205000e+003
    endloop
  endfacet
  facet normal  8.766122e-002  0.000000e+000  9.961503e-001
    outer loop
      vertex  1.443447e-012  1.051636e+003 -6.205000e+003
      vertex  4.500000e+003 -2.000888e-011 -6.601000e+003
      vertex  4.500000e+003  1.029635e+003 -6.601000e+003
    endloop
  endfacet
  facet normal  8.766122e-002  0.000000e+000  9.961503e-001
    outer loop
      vertex  2.202682e-013 -1.051636e+003 -6.205000e+003
      vertex  4.500000e+003 -1.029635e+003 -6.601000e+003
      vertex -7.358558e-013 -3.842615e-011 -6.205000e+003
    endloop
  endfacet
  facet normal  8.766122e-002  0.000000e+000  9.961503e-001
    outer loop
      vertex -7.358558e-013 -3.842615e-011 -6.205000e+003
      vertex  4.500000e+003 -1.029635e+003 -6.601000e+003
      vertex  4.500000e+003 -2.000888e-011 -6.601000e+003
    endloop
  endfacet
  facet normal  8.595524e-002  1.492509e-001  9.850562e-001
    outer loop
      vertex  1.364242e-012 -2.701636e+003 -5.955000e+003
      vertex  4.500000e+003 -2.679635e+003 -6.351000e+003
      vertex  2.202682e-013 -1.051636e+003 -6.205000e+003
    endloop
  endfacet
  facet normal  8.595524e-002  1.492509e-001  9.850562e-001
    outer loop
      vertex  2.202682e-013 -1.051636e+003 -6.205000e+003
      vertex  4.500000e+003 -2.679635e+003 -6.351000e+003
      vertex  4.500000e+003 -1.029635e+003 -6.601000e+003
    endloop
  endfacet
  facet normal  0.000000e+000  9.984602e-001  5.547297e-002
    outer loop
      vertex  4.547474e-013 -2.999152e+003 -6.000000e+002
      vertex  4.500000e+003 -2.999152e+003 -6.000000e+002
      vertex  1.364242e-012 -2.701636e+003 -5.955000e+003
    endloop
  endfacet
  facet normal -9.748891e-009  9.984601e-001  5.547297e-002
    outer loop
      vertex  1.364242e-012 -2.701636e+003 -5.955000e+003
      vertex  4.500000e+003 -2.999152e+003 -6.000000e+002
      vertex  4.500000e+003 -2.679635e+003 -6.351000e+003
    endloop
  endfacet
  facet normal  -0.000000e+000 -2.466793e-001 -9.690971e-001
    outer loop
      vertex -1.136868e-013  2.999152e+003 -6.000000e+002
      vertex  4.500000e+003  2.999152e+003 -6.000000e+002
      vertex  1.364242e-012  1.899152e+003 -3.200000e+002
    endloop
  endfacet
  facet normal  0.000000e+000 -2.466793e-001 -9.690971e-001
    outer loop
      vertex  1.364242e-012  1.899152e+003 -3.200000e+002
      vertex  4.500000e+003  2.999152e+003 -6.000000e+002
      vertex  4.500000e+003  1.899152e+003 -3.200000e+002
    endloop
  endfacet
  facet normal  0.000000e+000  2.466793e-001 -9.690971e-001
    outer loop
      vertex  4.547474e-013 -1.899152e+003 -3.200000e+002
      vertex  4.500000e+003 -1.899152e+003 -3.200000e+002
      vertex  4.547474e-013 -2.999152e+003 -6.000000e+002
    endloop
  endfacet
  facet normal  0.000000e+000  2.466793e-001 -9.690971e-001
    outer loop
      vertex  4.547474e-013 -2.999152e+003 -6.000000e+002
      vertex  4.500000e+003 -1.899152e+003 -3.200000e+002
      vertex  4.500000e+003 -2.999152e+003 -6.000000e+002
    endloop
  endfacet
  facet normal  -0.000000e+000  0.000000e+000 -1.000000e+000
    outer loop
      vertex  1.364242e-012  1.899152e+003 -3.200000e+002
      vertex  4.500000e+003  1.899152e+003 -3.200000e+002
      vertex  4.547474e-013  0.000000e+000 -3.200000e+002
    endloop
  endfacet
  facet normal  0.000000e+000  0.000000e+000 -1.000000e+000
    outer loop
      vertex  4.547474e-013  0.000000e+000 -3.200000e+002
      vertex  4.500000e+003  1.899152e+003 -3.200000e+002
      vertex  4.500000e+003  0.000000e+000 -3.200000e+002
    endloop
  endfacet
  facet normal  -0.000000e+000  0.000000e+000 -1.000000e+000
    outer loop
      vertex  4.547474e-013  0.000000e+000 -3.200000e+002
      vertex  4.500000e+003  0.000000e+000 -3.200000e+002
      vertex  4.547474e-013 -1.899152e+003 -3.200000e+002
    endloop
  endfacet
  facet normal  0.000000e+000  0.000000e+000 -1.000000e+000
    outer loop
      vertex  4.547474e-013 -1.899152e+003 -3.200000e+002
      vertex  4.500000e+003  0.000000e+000 -3.200000e+002
      vertex  4.500000e+003 -1.899152e+003 -3.200000e+002
    endloop
  endfacet
  facet normal  0.000000e+000  7.579122e-017  1.000000e+000
    outer loop
      vertex  9.094947e-013  6.750000e+003 -5.115908e-013
      vertex -4.547474e-013 -4.547474e-013  0.000000e+000
      vertex  4.500000e+003  6.750000e+003 -5.115908e-013
    endloop
  endfacet
  facet normal  0.000000e+000  7.579122e-017  1.000000e+000
    outer loop
      vertex  4.500000e+003  6.750000e+003 -5.115908e-013
      vertex -4.547474e-013 -4.547474e-013  0.000000e+000
      vertex  4.500000e+003 -4.547474e-013  0.000000e+000
    endloop
  endfacet
  facet normal  0.000000e+000  1.000000e+000  0.000000e+000
    outer loop
      vertex  0.000000e+000  6.750000e+003 -2.000000e+002
      vertex  9.094947e-013  6.750000e+003 -5.115908e-013
      vertex  4.500000e+003  6.750000e+003 -2.000000e+002
    endloop
  endfacet
  facet normal  0.000000e+000  1.000000e+000  -0.000000e+000
    outer loop
      vertex  4.500000e+003  6.750000e+003 -2.000000e+002
      vertex  9.094947e-013  6.750000e+003 -5.115908e-013
      vertex  4.500000e+003  6.750000e+003 -5.115908e-013
    endloop
  endfacet
  facet normal  0.000000e+000  8.766123e-002 -9.961504e-001
    outer loop
      vertex  4.547474e-013  4.250000e+003 -4.200000e+002
      vertex  0.000000e+000  6.750000e+003 -2.000000e+002
      vertex  4.500000e+003  4.250000e+003 -4.200000e+002
    endloop
  endfacet
  facet normal  0.000000e+000  8.766123e-002 -9.961504e-001
    outer loop
      vertex  4.500000e+003  4.250000e+003 -4.200000e+002
      vertex  0.000000e+000  6.750000e+003 -2.000000e+002
      vertex  4.500000e+003  6.750000e+003 -2.000000e+002
    endloop
  endfacet
  facet normal  0.000000e+000  2.490410e-001 -9.684929e-001
    outer loop
      vertex -1.136868e-013  3.550000e+003 -6.000000e+002
      vertex  4.547474e-013  4.250000e+003 -4.200000e+002
      vertex  4.500000e+003  3.550000e+003 -6.000000e+002
    endloop
  endfacet
  facet normal  0.000000e+000  2.490410e-001 -9.684929e-001
    outer loop
      vertex  4.500000e+003  3.550000e+003 -6.000000e+002
      vertex  4.547474e-013  4.250000e+003 -4.200000e+002
      vertex  4.500000e+003  4.250000e+003 -4.200000e+002
    endloop
  endfacet
  facet normal  0.000000e+000  9.984602e-001 -5.547298e-002
    outer loop
      vertex -1.136868e-013  3.550000e+003 -6.000000e+002
      vertex  4.500000e+003  3.550000e+003 -6.000000e+002
      vertex -5.360993e-013  3.205148e+003 -6.807000e+003
    endloop
  endfacet
  facet normal -4.007158e-009  9.984602e-001 -5.547298e-002
    outer loop
      vertex -5.360993e-013  3.205148e+003 -6.807000e+003
      vertex  4.500000e+003  3.550000e+003 -6.000000e+002
      vertex  4.500000e+003  3.180480e+003 -7.251000e+003
    endloop
  endfacet
  facet normal -9.818988e-002  2.879858e-017 -9.951677e-001
    outer loop
      vertex -1.476153e-012 -3.728928e-011 -6.807000e+003
      vertex -5.360993e-013  3.205148e+003 -6.807000e+003
      vertex  4.500000e+003 -1.796252e-011 -7.251000e+003
    endloop
  endfacet
  facet normal -9.818988e-002  0.000000e+000 -9.951677e-001
    outer loop
      vertex  4.500000e+003 -1.796252e-011 -7.251000e+003
      vertex -5.360993e-013  3.205148e+003 -6.807000e+003
      vertex  4.500000e+003  3.180480e+003 -7.251000e+003
    endloop
  endfacet
  facet normal -9.818988e-002 -1.735959e-017 -9.951677e-001
    outer loop
      vertex -9.094947e-013 -3.205148e+003 -6.807000e+003
      vertex -1.476153e-012 -3.728928e-011 -6.807000e+003
      vertex  4.500000e+003 -3.180480e+003 -7.251000e+003
    endloop
  endfacet
  facet normal -9.818988e-002  0.000000e+000 -9.951677e-001
    outer loop
      vertex  4.500000e+003 -3.180480e+003 -7.251000e+003
      vertex -1.476153e-012 -3.728928e-011 -6.807000e+003
      vertex  4.500000e+003 -1.796252e-011 -7.251000e+003
    endloop
  endfacet
  facet normal  0.000000e+000 -9.984602e-001 -5.547298e-002
    outer loop
      vertex  4.547474e-013 -3.550000e+003 -6.000000e+002
      vertex -9.094947e-013 -3.205148e+003 -6.807000e+003
      vertex  4.500000e+003 -3.550000e+003 -6.000000e+002
    endloop
  endfacet
  facet normal -4.007158e-009 -9.984602e-001 -5.547298e-002
    outer loop
      vertex  4.500000e+003 -3.550000e+003 -6.000000e+002
      vertex -9.094947e-013 -3.205148e+003 -6.807000e+003
      vertex  4.500000e+003 -3.180480e+003 -7.251000e+003
    endloop
  endfacet
  facet normal  0.000000e+000 -2.490410e-001 -9.684929e-001
    outer loop
      vertex  0.000000e+000 -4.250000e+003 -4.200000e+002
      vertex  4.547474e-013 -3.550000e+003 -6.000000e+002
      vertex  4.500000e+003 -4.250000e+003 -4.200000e+002
    endloop
  endfacet
  facet normal  0.000000e+000 -2.490410e-001 -9.684929e-001
    outer loop
      vertex  4.500000e+003 -4.250000e+003 -4.200000e+002
      vertex  4.547474e-013 -3.550000e+003 -6.000000e+002
      vertex  4.500000e+003 -3.550000e+003 -6.000000e+002
    endloop
  endfacet
  facet normal  0.000000e+000 -8.766123e-002 -9.961504e-001
    outer loop
      vertex -4.547474e-013 -6.750000e+003 -2.000000e+002
      vertex  0.000000e+000 -4.250000e+003 -4.200000e+002
      vertex  4.500000e+003 -6.750000e+003 -2.000000e+002
    endloop
  endfacet
  facet normal  0.000000e+000 -8.766123e-002 -9.961504e-001
    outer loop
      vertex  4.500000e+003 -6.750000e+003 -2.000000e+002
      vertex  0.000000e+000 -4.250000e+003 -4.200000e+002
      vertex  4.500000e+003 -4.250000e+003 -4.200000e+002
    endloop
  endfacet
  facet normal  0.000000e+000 -1.000000e+000  0.000000e+000
    outer loop
      vertex -4.547474e-013 -6.750000e+003  0.000000e+000
      vertex -4.547474e-013 -6.750000e+003 -2.000000e+002
      vertex  4.500000e+003 -6.750000e+003  0.000000e+000
    endloop
  endfacet
  facet normal  0.000000e+000 -1.000000e+000  -0.000000e+000
    outer loop
      vertex  4.500000e+003 -6.750000e+003  0.000000e+000
      vertex -4.547474e-013 -6.750000e+003 -2.000000e+002
      vertex  4.500000e+003 -6.750000e+003 -2.000000e+002
    endloop
  endfacet
  facet normal  0.000000e+000  0.000000e+000  1.000000e+000
    outer loop
      vertex -4.547474e-013 -4.547474e-013  0.000000e+000
      vertex -4.547474e-013 -6.750000e+003  0.000000e+000
      vertex  4.500000e+003 -4.547474e-013  0.000000e+000
    endloop
  endfacet
  facet normal  0.000000e+000  0.000000e+000  1.000000e+000
    outer loop
      vertex  4.500000e+003 -4.547474e-013  0.000000e+000
      vertex -4.547474e-013 -6.750000e+003  0.000000e+000
      vertex  4.500000e+003 -6.750000e+003  0.000000e+000
    endloop
  endfacet
endsolid CATIA STL
